<svg width="512" height="512" viewBox="0 0 512 512" fill="none" xmlns="http://www.w3.org/2000/svg">
<circle cx="256" cy="256" r="256" fill="#800080"/>
<g clip-path="url(#clip0_101_9)">
<path d="M390.908 273.849C390.908 265.502 384.134 258.738 375.788 258.738H136.203C127.856 258.738 121.092 265.502 121.092 273.849V283.455H139.737V383.585C139.737 395.977 149.779 406 162.142 406H350.313C362.704 406 372.718 395.948 372.718 383.585V283.446H390.908V273.849Z" fill="#F5F5F5"/>
<path d="M313.08 217.726H326.685C336.67 217.726 344.78 209.521 344.78 199.545V120.59C344.78 112.537 338.176 106 330.105 106C322.033 106 315.411 112.537 315.411 120.59V188.366H302.555C299.021 186.035 294.815 184.643 290.267 184.643H221.904C209.256 184.643 198.901 195.083 198.901 207.731V243.826H313.08V217.726Z" fill="#F5F5F5"/>
<path d="M256.104 171.607C274.218 171.607 288.903 156.922 288.903 138.808C288.903 120.694 274.218 106.009 256.104 106.009C237.99 106.009 223.306 120.694 223.306 138.808C223.306 156.922 237.99 171.607 256.104 171.607Z" fill="#F5F5F5"/>
</g>
<defs>
<clipPath id="clip0_101_9">
<rect width="300" height="300" fill="white" transform="translate(106 106)"/>
</clipPath>
</defs>
</svg>
