<svg width="384" height="384" viewBox="0 0 384 384" fill="none" xmlns="http://www.w3.org/2000/svg">
<circle cx="192" cy="192" r="192" fill="#800080"/>
<g clip-path="url(#clip0_101_9)">
<path d="M293.181 205.387C293.181 199.127 288.101 194.053 281.841 194.053H102.152C95.8922 194.053 90.8189 199.127 90.8189 205.387V212.591H104.802V287.689C104.802 296.982 112.334 304.5 121.607 304.5H262.734C272.028 304.5 279.539 296.961 279.539 287.689V212.584H293.181V205.387Z" fill="#F5F5F5"/>
<path d="M234.81 163.294H245.013C252.503 163.294 258.585 157.141 258.585 149.659V90.4423C258.585 84.4027 253.632 79.5 247.579 79.5C241.525 79.5 236.558 84.4027 236.558 90.4423V141.274H226.916C224.266 139.527 221.111 138.482 217.7 138.482H166.428C156.942 138.482 149.176 146.312 149.176 155.798V182.87H234.81V163.294Z" fill="#F5F5F5"/>
<path d="M192.078 128.705C205.664 128.705 216.677 117.692 216.677 104.106C216.677 90.5204 205.664 79.5071 192.078 79.5071C178.493 79.5071 167.479 90.5204 167.479 104.106C167.479 117.692 178.493 128.705 192.078 128.705Z" fill="#F5F5F5"/>
</g>
<defs>
<clipPath id="clip0_101_9">
<rect width="225" height="225" fill="white" transform="translate(79.5 79.5)"/>
</clipPath>
</defs>
</svg>
