<svg width="256" height="256" viewBox="0 0 256 256" fill="none" xmlns="http://www.w3.org/2000/svg">
<circle cx="128" cy="128" r="128" fill="#800080"/>
<g clip-path="url(#clip0_101_9)">
<path d="M195.454 136.924C195.454 132.751 192.067 129.369 187.894 129.369H68.1014C63.9281 129.369 60.546 132.751 60.546 136.924V141.728H69.8683V191.792C69.8683 197.988 74.8894 203 81.0711 203H175.156C181.352 203 186.359 197.974 186.359 191.792V141.723H195.454V136.924Z" fill="#F5F5F5"/>
<path d="M156.54 108.863H163.342C168.335 108.863 172.39 104.761 172.39 99.7726V60.2949C172.39 56.2685 169.088 53 165.052 53C161.016 53 157.705 56.2685 157.705 60.2949V94.183H151.277C149.51 93.0177 147.407 92.3214 145.134 92.3214H110.952C104.628 92.3214 99.4505 97.5415 99.4505 103.865V121.913H156.54V108.863Z" fill="#F5F5F5"/>
<path d="M128.052 85.8033C137.109 85.8033 144.451 78.4611 144.451 69.404C144.451 60.3469 137.109 53.0047 128.052 53.0047C118.995 53.0047 111.653 60.3469 111.653 69.404C111.653 78.4611 118.995 85.8033 128.052 85.8033Z" fill="#F5F5F5"/>
</g>
<defs>
<clipPath id="clip0_101_9">
<rect width="150" height="150" fill="white" transform="translate(53 53)"/>
</clipPath>
</defs>
</svg>
